<svg xmlns="http://www.w3.org/2000/svg" version="1.1" xmlns:xlink="http://www.w3.org/1999/xlink" xmlns:svgjs="http://svgjs.dev/svgjs" viewBox="0 0 800 800" opacity="1"><defs><linearGradient x1="50%" y1="0%" x2="50%" y2="100%" id="wwwhirl-grad"><stop stop-color="hsl(206, 75%, 49%)" stop-opacity="1" offset="45%"></stop><stop stop-color="hsl(331, 90%, 56%)" stop-opacity="1" offset="100%"></stop></linearGradient></defs><g stroke-width="2" stroke="url(#wwwhirl-grad)" fill="none" stroke-linecap="round"><path d="M4.000000581007761 401.8680809128626C21.769231975939192 380.4117340034829 29.384616859481227 327.3705782896126 64.92307964934409 328.30346293784646C100.461542439207 329.23634758608034 90.30769592781758 394.49384988396605 125.84615871768045 405.06654256395024C161.38462150754333 415.6392352439344 151.2307749961539 357.4005793470467 186.7692377860168 364.55269498350657C222.30770057587966 371.7048106199665 212.15385406449025 435.80731287718163 247.69231685435312 429.5880818889556C283.230779644216 423.3688509007296 273.07693313282664 333.90077082724986 308.61539592268946 343.2296173095889C344.15385871255233 352.55846379192786 334.000012201163 461.88365994924357 369.5384749910258 461.57269839983223C405.0769377808886 461.2617368504209 394.9230912694993 347.7607713152964 430.4615540593622 342.163463425893C466.00001684922495 336.5661555364896 455.84617033783564 447.35731328388704 491.3846331276984 442.38192849330625C526.9230959175615 437.40654370272546 516.769249406172 315.4651932550085 552.3077121960348 325.1050012867588C587.8461749858977 334.7448093185091 577.6923284745081 474.4998142396448 613.2307912643711 475.4326988878787C648.769254054234 476.3655835361126 638.6154075428447 343.2296173095889 674.1538703327075 328.30346293784646C709.6923331225704 313.37730856610403 699.538486611181 408.0873119010886 735.0769494010439 424.25731247047617C770.6154121909067 440.4273130398638 778.2307970744487 395.5600037676619 796.0000284693801 383.74346489003256 " transform="rotate(99, 400, 400)"></path><path d="M16.000000563401464 401.8114769086302C33.23077040091073 381.0053223298377 40.61538604555756 329.5714743648726 75.0769257205761 330.47608978134184C109.53846539559464 331.38070519781104 99.69231120273218 394.6607074260638 134.15385087775076 404.91301547938184C168.61539055276927 415.16532353269986 158.7692363599068 358.69147539026324 193.23077603492538 365.6268602498607C227.6923157099439 372.5622451094582 217.84616151708144 434.7222472982729 252.30770119209996 428.6914778551446C286.7692408671185 422.6607084120164 276.9230866742561 335.90378228015726 311.38462634927464 344.94993644484964C345.84616602429315 353.99609060954197 336.0000118314307 460.0084020348178 370.4615515064492 459.7068635626613C404.9230911814678 459.4053250905049 395.0769369886054 349.3437827534145 429.5384766636239 343.91609025459906C464.00001633864247 338.48839775578364 454.15386214578007 445.9222476926539 488.6154018207985 441.0976321381513C523.0769414958171 436.2730165836487 513.2307873029546 318.0268585737414 547.6923269779732 327.37455121059014C582.1538666529917 336.72224384743896 572.3077124601292 472.2422486194493 606.7692521351478 473.14686403591855C641.2307918101664 474.05147945238775 631.384637617304 344.94993644484964 665.8461772923224 330.47608978134184C700.307716967341 316.00224311783404 690.4615627744786 407.84224635175843 724.9231024494969 423.52224690389187C759.3846421245155 439.2022474560253 766.7692577691623 395.69455361631435 784.0000276066717 384.23609167437075 " transform="rotate(96, 400, 400)"></path><path d="M28.000000545795167 401.7548538309115C44.692308825882265 381.5988915827063 51.84615523163389 331.77235136664626 85.2307717918081 332.64869755135084C118.61538835198232 333.5250437360554 109.0769264776468 394.8275458946753 142.46154303782103 404.7594693213272C175.84615959799524 414.69139274797897 166.30769772365971 359.9823523599935 199.69231428383395 366.70100644272856C233.0769308440082 373.4196605254636 223.53846896967266 433.6371626458779 256.92308552984684 427.79485474784735C290.30770209002105 421.9525468498168 280.7692402156856 337.9067746595783 314.1538567758598 346.670236506624C347.538473336034 355.43369835366974 338.0000114616985 458.13312504690566 371.3846280218727 457.8410096520041C404.7692445820469 457.5488942571026 395.23078270771146 350.92677511804624 428.61539926788566 345.6686980098188C462.0000158280599 340.41062090159136 452.46155395372443 444.48716302793446 485.84617051389864 439.81331670951005C519.2307870740729 435.1394703910857 509.6923251997372 320.58850481898793 543.0769417599115 329.64408206093515C576.4615583200857 338.6996593028824 566.9230964457502 469.9846639257675 600.3077130059244 470.8610101104721C633.6923295660987 471.73735629517665 624.1538676917631 346.670236506624 657.5384842519373 332.64869755135084C690.9231008121116 318.6271585960777 681.3846389377761 407.59716172894196 714.7692554979503 422.7871622638212C748.1538720581243 437.9771627987005 755.3077184638761 395.82908439148054 772.0000267439632 384.7286993852226 " transform="rotate(93, 400, 400)"></path><path d="M40.00000052818887 401.69826508546817C56.1538472508538 382.1924951678502 63.0769244177102 333.9732627006954 95.38461786304009 334.8213396536353C127.69231130837 335.66941660657517 118.46154175256143 394.99441869556216 150.7692351978913 404.60595749554784C183.0769286432212 414.21749629553346 173.84615908741264 361.2732636619991 206.15385253274252 367.7751869678718C238.4615459780724 374.27711027374437 229.23077642226386 432.5521123257582 261.53846986759373 426.8982659728254C293.84616331292364 421.2444196198927 284.61539375711516 339.90980137127474 316.92308720244495 348.3905709006738C349.23078064777485 356.8713404300729 340.0000110919663 456.257882391269 372.30770453729616 455.97519007362234C404.61539798262606 455.6924977559757 395.3846284268175 352.5098018149534 427.6923218721474 347.42134009731393C460.0000153174773 342.33287837967447 450.76924576166874 443.0521126954904 483.07693920699865 438.5290356131442C515.3846326523285 434.005958530798 506.1538630965199 323.15018539650987 538.4615565418499 331.9136472435556C570.7692499871797 340.67710909060133 561.5384804313711 467.72711356436105 593.8461738767011 468.57519051730094C626.1538673220309 469.4232674702409 616.9230977662224 348.3905709006738 649.2307912115523 334.8213396536353C681.5384846568822 321.25210840659673 672.3077151010737 407.35211143840087 704.6154085464035 422.05211195602595C736.9231019917333 436.75211247365104 743.8461791585897 395.96364949892205 760.0000258812547 385.2213414283499 " transform="rotate(90, 400, 400)"></path><path d="M52.00000051058258 401.6416496371439C67.61538567582535 382.78607205011326 74.30769360378653 336.1741473318636 105.53846393427209 336.99395505303886C136.76923426475764 337.81376277421407 127.84615702747607 395.1612647935682 159.0769273579616 404.45241896688765C190.30769768844718 413.7435731402071 181.38462045116555 362.5641482611239 212.61539078165112 368.8493407901341C243.84616111213666 375.13453331914434 234.92308387485508 431.46703530275767 266.1538542053406 426.00165049492267C297.3846245358261 420.5362656870877 288.46154729854464 341.9128013800903 319.69231762903013 350.1108785918428C350.92308795951567 358.3089558035952 342.0000107222341 454.38261303275146 373.23078105271964 454.10934379235965C404.4615513832052 453.8360745519679 395.53847414592366 354.0928018089797 426.76924447640914 349.1739554819282C458.0000148068947 344.2551091548767 449.0769375696132 441.61703566016547 480.30770790009865 437.24472781389744C511.53847823058436 432.87241996762947 502.61540099330256 325.71183927115095 533.8461713237882 334.18318572329514C565.0769416542737 342.6545321754394 556.1538644169921 465.4695365000738 587.3846347474777 466.28934422124905C618.6154050779633 467.10915194242426 609.6923278406816 350.1108785918428 640.9230981711672 336.99395505303886C672.1538685016528 323.8770315142349 663.2307912643712 407.1070344449789 694.4615615948568 421.31703494534986C725.6923319253422 435.52703544572074 732.3846398533034 396.09818790348277 748.0000250185461 385.7139567685963 " transform="rotate(87, 400, 400)"></path><path d="M64.00000049297628 401.58505707700334C79.07692410079689 383.37967182055996 85.53846278986286 338.3750548512154 115.69231000550408 339.166593340626C145.84615722114535 339.95813183003656 137.23077230239068 395.32813377975776 167.3846195180319 404.29890332641105C197.53846673367312 413.26967287306434 188.92308181491848 363.8550557484323 219.0769290305597 369.92351750058003C249.2307762462009 375.99197925272784 240.61539132744628 430.3819811679407 270.76923854308745 425.10505790520347C300.9230857587287 419.82813464246624 292.30770083997413 343.9158242770895 322.4615480556153 351.8312091711953C352.6153952712565 359.7465940653011 344.0000103525019 452.5073665624175 374.1538575681431 452.24352039928056C404.3077047837843 451.9796742361437 395.69231986502973 355.6758246911896 425.8461670806709 350.92659375472607C456.0000142963121 346.17736281826257 447.38462937755753 440.1819815130241 477.53847659319877 435.9604429028343C507.69232380884 431.7389042926446 499.0769388900853 328.2735160339756 529.2307861057266 336.45274709121827C559.3846333213678 344.631978148461 550.769248402613 463.21198232397006 580.9230956182543 464.00352081338065C611.0769428338955 464.79505930279123 602.4615579151408 351.8312091711953 632.6154051307822 339.166593340626C662.7692523464234 326.5019775100567 654.1538674276687 406.86198033974057 684.3077146433099 420.5819808228573C714.4615618589511 434.30198130597404 720.923100548017 396.232749196227 736.0000241558377 386.2065949970263 " transform="rotate(84, 400, 400)"></path><path d="M76.00000047536999 401.5284301845873C90.53846252576842 383.9732372587312 96.76923197593919 340.57592803829186 125.8461560767361 341.33919729593777C154.923080177533 342.10246655358367 146.61538757730528 395.49496843367194 175.69231167810216 404.14535335365906C204.7692357788991 412.7957382736461 196.46154317867138 365.14592890346523 225.53846727946828 370.9976598787506C254.61539138026518 376.84939085403596 246.30769878003747 429.2968927008484 275.3846228808344 424.2084309832089C304.4615469816312 419.1199692655694 296.1538543814036 345.9188128418133 325.23077848220044 353.5515054182725C354.30770258299736 361.1841979947316 346.00000998276965 450.6320857598081 375.0769340835665 450.3776626739261C404.15385818436346 450.1232395880441 395.8461655841358 357.2588132411241 424.9230896849327 352.67919769524855C454.0000137857295 348.0995821493731 445.6923211855019 438.74689303360736 474.76924528629877 434.6761236594958C503.8461693870957 430.60535428538424 495.53847678686793 330.8351584645249 524.6154008876649 338.72227412686607C553.6923249884617 346.6093897892072 545.384632388234 460.95439381559095 574.461556489031 461.71766307323685C603.5384805898278 462.4809323308828 595.2307879896001 353.5515054182725 624.307712090397 341.33919729593777C653.384636191194 329.1268891736031 645.0769435909663 406.61689190222677 674.1538676917631 419.84689236808936C703.2307917925599 433.07689283395194 709.4615612427308 396.3672761566959 724.0000232931292 386.6991988931809 " transform="rotate(81, 400, 400)"></path><path d="M88.00000045776369 401.47182236565766C102.00000095073997 384.5668217703888 108.00000116201551 342.7768202988546 136.00000214796808 343.5118203247359C164.00000313392064 344.2468203506171 156.0000028522199 395.6618221610725 184.00000383817246 403.9918224543934C212.00000482412506 412.3218227477143 204.00000454242428 366.4368211319845 232.00000552837685 372.0718213304075C260.00000651432947 377.70682152883046 252.0000062326287 428.21182330724235 280.00000721858123 423.31182313470066C308.0000082045338 418.41182296215896 300.0000079228331 347.92182048002337 328.0000089087856 355.2718207388359C356.0000098947382 362.62182099764846 348.00000961303743 448.75682403068504 376.00001059899 448.51182402205797C404.00001158494257 448.2668240134309 396.0000113032419 358.8418208645449 424.0000122891944 354.43182070925735C452.00001327514696 350.02182055396986 444.00001299344626 437.311823627677 472.00001397939883 433.39182348964357C500.00001496535145 429.4718233516102 492.0000146836506 333.3968199685605 520.0000156696032 340.99182023600014C548.0000166555558 348.58682050343975 540.000016373855 458.6968243806982 568.0000173598075 459.4318244065795C596.00001834576 460.1668244324607 588.0000180640594 355.2718207388359 616.0000190500119 343.5118203247359C644.0000200359647 331.7518199106358 636.0000197542639 406.37182253819935 664.0000207402163 419.1118229868078C692.0000217261688 431.8518234354162 698.0000219374444 396.50182219065107 712.0000224304207 387.1918218628219 " transform="rotate(78, 400, 400)"></path><path d="M100.0000004401574 401.4152183614253C113.46153937571151 385.16041009674365 119.23077034809184 344.9777163741146 146.15384821920009 345.6844471682312C173.07692609030832 346.3911779623478 165.38461812713453 395.8286797031703 192.30769599824276 403.838295369825C219.230773869351 411.8479110364797 211.5384659061772 367.72771717520106 238.46154377728544 373.14598659676165C265.3846216483937 378.56425601832217 257.6923136852199 427.12675772833364 284.61539155632806 422.41521910088966C311.5384694274363 417.70368047344573 303.8461614642626 349.9248319329308 330.7692393353708 356.99213987409667C357.692317206479 364.0594478152626 350.00000924330527 446.8815661162593 376.9230871144135 446.64598918488707C403.8461649855217 446.4104122535149 396.15385702234795 360.424832302663 423.07693489345615 356.1844475379634C450.00001276456436 351.9440627732639 442.3077048013906 435.8767580364438 469.23078267249883 432.10752713448863C496.15386054360715 428.3382962325335 488.46155258043325 335.95848528729334 515.3846304515415 343.2613701598315C542.3077083226498 350.5642550323696 534.6154003594759 456.4392587605027 561.5384782305841 457.1459895546193C588.4615561016924 457.8527203487359 580.7692481385186 356.99213987409667 607.6923260096269 345.6844471682312C634.6154038807351 334.37675446236574 626.9230959175615 406.1267569888692 653.8461737886696 418.37675742022344C680.7692516597778 430.6267578515777 686.5384826321581 396.6363720393035 700.0000215677122 387.6844486471601 " transform="rotate(75, 400, 400)"></path><path d="M112.0000004225511 401.35859528370656C124.92307780068305 385.7539793496122 130.46153953416817 347.17859337588834 156.30769429043207 347.85705493824025C182.153849046696 348.53551650059217 174.76923340204914 395.9955181717818 200.61538815831307 403.6847492117703C226.46154291457697 411.3739802517588 219.0769272699301 369.01859414493134 244.92308202619404 374.2201327896294C270.76923678245794 379.42167143432755 263.3846211378111 426.04167307593855 289.230775894075 421.5185959935924C315.0769306503389 416.9955189112462 307.6923150056921 351.92782431235185 333.538469761956 358.7124399358711C359.3846245182199 365.4970555593904 352.00000887357305 445.00628912834725 377.84616362983695 444.7801352742299C403.69231838610085 444.55398142011256 396.307702741454 362.00782466729476 422.1538574977179 357.93705529318316C448.0000122539818 353.86628591907163 440.61539660933505 434.44167337172433 466.46155136559895 430.82321170584737C492.30770612186285 427.20475003997046 484.92309047721596 338.52013153253995 510.76924523347986 345.53090101017654C536.6153999897438 352.5416704878131 529.2307843450969 454.1816740668209 555.0769391013607 454.8601356291728C580.9230938576247 455.53859719152473 573.5384782129779 358.7124399358711 599.3846329692419 347.85705493824025C625.2307877255058 337.0016699406094 617.8461720808589 405.8816723660527 643.6923268371228 417.6416727801528C669.5384815933867 429.40167319425285 675.0769433268717 396.7709028144697 688.0000207050037 388.17705635801195 " transform="rotate(72, 400, 400)"></path><path d="M124.00000040494481 401.30198746477686C136.38461622565458 386.3475638612698 141.6923087202445 349.3794856364511 166.46154036166408 350.02967796703837C191.23077200308364 350.6798702976256 184.15384867696378 396.1623718991823 208.92308031838334 403.5312183125046C233.69231195980294 410.90006472582695 226.61538863368304 370.3094863734506 251.3846202751026 375.2942942412863C276.15385191652217 380.279102109122 269.0769285904023 424.95660368233257 293.84616023182184 420.6219881450841C318.61539187324144 416.28737260783566 311.5384685471216 353.9308319505619 336.30770018854116 360.4327552564346C361.0769318299607 366.9346785623072 354.00000850384083 443.1310273992242 378.76924014526037 442.91429662236175C403.53847178667996 442.6975658454993 396.4615484605601 363.5908322907156 421.2307801019797 359.68967830719197C446.0000117433992 355.7885243236684 438.9230884172794 433.00660396579394 463.69232005869895 429.53891153599517C488.46155170011855 426.07121910619645 481.3846283739986 341.0817930365755 506.15386001541816 347.8004471193106C530.9230916568379 354.51910120204565 523.8461683307178 451.9241046319281 548.6153999721375 452.5742969625154C573.3846316135571 453.22448929310264 566.3077082874372 360.4327552564346 591.0769399288567 350.02967796703837C615.8461715702764 339.62660067764216 608.7692482441564 405.6366030020253 633.538479885576 416.9066033988712C658.3077115269955 428.1766037957171 663.6154040215855 396.9054488484249 676.0000198422953 388.6696793276529 " transform="rotate(69, 400, 400)"></path><path d="M136.0000003873385 401.2453834605445C147.84615465062615 386.94115218762465 152.92307790632083 351.5803817117111 176.61538643289606 352.2023048105337C200.30769495947135 352.8242279093563 193.53846395187838 396.3292294412801 217.23077247845362 403.3776912279362C240.92308100502888 410.4261530145924 234.15384999743594 371.6003824166672 257.8461585240112 376.36845950764047C281.5384670505864 381.1365365986137 274.7692360429935 423.87153810342386 298.46154456956873 419.7253841112732C322.15385309614396 415.5792301191225 315.38462208855105 355.9338434034693 339.07693061512634 362.1530743916953C362.7692391417016 368.37230537992133 356.0000081341086 441.2557694847984 379.69231666068384 441.04846178519085C403.3846251872591 440.8411540855833 396.61539417966617 365.1738437288337 420.3077027062414 361.44230513589804C444.0000112328167 357.71076654296246 437.2307802252238 431.57153837456076 460.923088751799 428.25461518084023C484.61539727837425 424.9376919871197 477.8461662707813 343.6434583553084 501.53847479735657 350.06999704314194C525.2307833239317 356.4965357309755 518.4615523163388 449.6665390117326 542.1538608429141 450.2884621105552C565.8461693694894 450.9103852093778 559.0769383618965 362.1530743916953 582.7692468884717 352.2023048105337C606.4615554150469 342.2515352293721 599.692324407454 405.39153745269516 623.3846329340292 416.17153783228684C647.0769414606044 426.9515382118786 652.1538647162992 397.03999869707735 664.0000189795868 389.1623061119911 " transform="rotate(66, 400, 400)"></path><path d="M147.99998511094316 401.1887565681285C159.30767781680862 387.5347176257959 164.15383183360808 353.78125489878755 186.769217245339 354.3749087658455C209.38460265706993 354.9685626329034 202.92306396800393 396.4960640951943 225.53844937973486 403.22414125518424C248.15383479146578 409.95221841517423 241.69229610239978 372.8912555717002 264.3076815141307 377.44260188581103C286.92306692586163 381.9939481999219 280.46152823679563 422.7864496363315 303.07691364852656 418.8287571892786C325.6922990602575 414.87106474222566 319.23076037119154 357.9368319681931 341.84614578292246 363.8733706387725C364.4615311946533 369.80990930935184 357.99999250558733 439.380488682189 380.61537791731826 439.1826040598364C403.2307633290492 438.98471943748376 396.76922463998324 366.7568322787682 419.3846100517141 363.1949090764205C441.99999546344503 359.6329858740729 435.5384567743791 430.13644989514404 458.15384218611 426.9702959375017C480.76922759784094 423.8041419798594 474.3076889087749 346.20510078585767 496.9230743205058 352.3395240787897C519.5384597322368 358.4739473717217 513.0769210431707 447.40895050335354 535.6923064549017 448.00260437041146C558.3076918666326 448.5962582374694 551.8461531775665 363.8733706387725 574.4615385892976 354.3749087658455C597.0769240010285 344.87644689291847 590.6153853119625 405.14644901518136 613.2307707236934 415.43644937751895C635.8461561354243 425.7264497398565 640.6923101522237 397.1745256575462 652.0000028580891 389.6549100081457 " transform="rotate(63, 400, 400)"></path><path d="M159.99998509333685 401.1321563785933C170.76921624178016 388.1283097668481 175.3846010196844 355.9821547887448 196.923063316571 356.5475394240381C218.46152561345758 357.11292405933136 212.30767924291857 396.6629254519894 233.84614153980516 403.0706179853131C255.38460383669175 409.4783105186369 249.23075746615268 374.182155429614 270.7692197630393 378.5167709668624C292.30768205992587 382.85138650411085 286.1538356893868 421.70138787212 307.6922979862734 417.9321569701649C329.23076028315995 414.1629260682097 323.076913912621 359.93984723579774 344.6153762095076 365.59369358873045C366.15383850639415 371.2475399416632 359.9999921358551 437.50523458246056 381.5384544327417 437.3167730373628C403.0769167296283 437.128311492265 396.9230703590893 368.33984753158353 418.4615326559759 364.94753971982385C439.99999495286244 361.55523190806423 433.84614858232345 428.7013881186082 455.38461087921 425.68600339704403C476.92307317609664 422.67061867547994 470.76922680555754 348.7667699192878 492.30768910244416 354.6090778173183C513.8461513993308 360.4513857153488 507.6923050287917 445.1513886978553 529.2307673256782 445.7167733331486C550.7692296225649 446.2821579684418 544.6153832520258 365.59369358873045 566.1538455489124 356.5475394240381C587.6923078457992 347.50138525934574 581.5384614752601 404.9013872805485 603.0769237721465 414.70138762563187C624.6153860690331 424.50138797071526 629.2307708469375 397.309079320896 640.0000019953807 390.14754060718116 " transform="rotate(60, 400, 400)"></path><path d="M171.99998507573056 401.0755561890582C182.2307546667517 388.7219019079002 186.61537020576074 358.1830546787021 207.076909387803 358.7201700822307C227.53844856984526 359.2572854857593 221.69229451783318 396.82978680878443 242.15383369987543 402.917094715442C262.61537288191766 409.0044026220996 256.76921882990564 375.4730552875278 277.23075801194784 379.5909400479138C297.69229719399016 383.7088248082998 291.846143141978 420.61632610790855 312.30768232402033 417.03555675105116C332.76922150606254 413.4547873941938 326.9230674540505 361.94286250340235 347.38460663609277 367.31401653868846C367.846145818135 372.6851705739746 361.9999917661229 435.6299804827321 382.4615309481652 435.45094201488916C402.9230701302074 435.2719035470463 397.0769160781954 369.9228627843989 417.53845526023764 366.7001703632272C437.9999944422799 363.47747794205554 432.1538403902678 427.26632634207226 452.6153795723101 424.40171085658636C473.07691875435233 421.53709537110046 467.2307647023402 351.32843905271795 487.6923038843825 356.87863155584694C508.15384306642477 362.4288240589759 502.30768901441263 442.8938268923571 522.7692281964548 443.43094229588564C543.2307673784971 443.96805769941426 537.3846133264851 367.31401653868846 557.8461525085274 358.7201700822307C578.3076916905696 350.126323625773 572.4615376385576 404.6563255459156 592.9230768205998 413.96632587374484C613.3846160026419 423.276326201574 617.7692315416512 397.4436329842457 628.0000011326722 390.6401712062166 " transform="rotate(57, 400, 400)"></path><path d="M183.99998505812425 401.01895981422035C193.69229309172323 389.31549786364957 197.84613939183706 360.3839583833567 217.23075545903498 360.8928045551206C236.61537152623293 361.40165072688455 231.0769097927478 396.99665198027674 250.4615258599457 402.7635752602681C269.84614192714366 408.53049854025954 264.30768019365854 376.7639589601389 283.69229626085644 380.6651129436625C303.0769123280544 384.56626692718606 297.53845059456927 419.53126815839437 316.92306666176717 416.1389603466347C336.3076827289651 412.74665253487507 330.76922099548005 363.9458815857043 350.1538370626779 369.03434330334375C369.53845312987585 374.1228050209832 363.99999139639067 433.75473019770084 383.3846074635886 433.58511480711286C402.7692235307866 433.4154994165248 397.2307617973015 371.50588185191145 416.61537786449935 368.4528048213278C435.9999939316973 365.3997277907441 430.46153219821224 425.83126838023367 449.8461482654101 423.11742213082596C469.2307643326081 420.40357588141825 463.69230259912285 353.89011200084536 483.07691866632086 359.1481891090728C502.46153473351876 364.40626621730024 496.9230730000336 440.6362689015561 516.3076890672315 441.14511507332C535.6923051344295 441.65396124508396 530.1538434009444 369.03434330334375 549.5384594681423 360.8928045551206C568.9230755353403 352.7512658068975 563.384613801855 404.41126762598 582.7692298690531 413.231267936555C602.153845936251 422.05126824713005 606.3076922363648 397.5781904622927 616.0000002699637 391.1328056199494 " transform="rotate(54, 400, 400)"></path><path d="M195.99998504051797 400.9623367365016C205.15383151669477 389.9090671165181 209.0769085779134 362.58483538513036 227.384601530267 363.06541232512967C245.6922944826206 363.5459892651289 240.46152506766242 397.16349044888824 258.769218020016 402.6100291022134C277.0769109723696 408.0565677555386 271.84614155741144 378.05483592986917 290.15383450976503 381.73925913653034C308.4615274621186 385.4236823431915 303.23075804716046 418.4461835059993 321.53845099951405 415.2423372393374C339.84614395186765 412.0384909726755 334.6153745369095 365.94887396512536 352.9230674892631 370.75464336511817C371.23076044161667 375.560412765111 365.9999910266585 431.8794532097887 384.3076839790121 431.71926089645564C402.6153769313657 431.55906858312255 397.3846075164075 373.0888742165432 415.6923004687611 370.2054125765476C433.9999934211147 367.32195093655184 428.7692240061566 424.3961837155142 447.0769169585102 421.8331067021847C465.3846099108638 419.2700296888552 460.15384049590557 356.4517582460919 478.46153344825916 361.4177199594178C496.76922640061275 366.38368167274376 491.5384569856546 438.37868420787424 509.8461499380082 438.85926114787355C528.1538428903618 439.3398380878728 522.9230734754036 370.75464336511817 541.2307664277573 363.06541232512967C559.5384593801109 355.3761812851411 554.3076899651527 404.1661830031635 572.6153829175063 412.49618329648433C590.9230758698598 420.8261835898052 594.8461529310784 397.7127212374588 603.9999994072552 391.6254133308013 " transform="rotate(51, 400, 400)"></path><path d="M207.9999850229117 400.90574036166373C216.6153699416663 390.5026630722675 220.30767776398972 364.7857390897849 237.538447601499 365.2380467980195C254.76921743900826 365.69035450625415 249.84614034257703 397.33035562038054 267.0769101800863 402.4565096470396C284.30768001759554 407.58266367369856 279.38460292116434 379.34573960248025 296.61537275867363 382.813432032279C313.84614259618286 386.28112446207774 308.92306549975166 417.3611255564851 326.15383533726094 414.34574083492095C343.3846051747702 411.33035611335686 338.46152807833903 367.95189304742723 355.69229791584826 372.47497012977345C372.9230677533575 376.9980472121196 367.9999906569263 430.0042029247575 385.2307604944356 429.8534336886793C402.4615303319448 429.7026644526011 397.53845323551366 374.67189328405584 414.7692230730229 371.9580470346482C431.99999291053217 369.2442007852404 427.07691581410097 422.96112575367556 444.3076856516102 420.5488179764243C461.5384554891195 418.136510199173 456.6153783926882 359.0134311942193 473.8461482301975 363.68727751264373C491.0769180677068 368.3611238310681 486.15384097127554 436.1211262170733 503.3846108087848 436.5734339253079C520.6153806462942 437.0257416335425 515.6923035498629 372.47497012977345 532.9230733873721 365.2380467980195C550.1538432248815 358.00112346626565 545.2307661284502 403.9211250832278 562.4615359659595 411.76112535929457C579.6923058034687 419.60112563536126 583.3846136257921 397.8472787155058 591.9999985445468 392.118047744534 " transform="rotate(48, 400, 400)"></path><path d="M219.99998500530538 400.8491210986423C228.07690836663784 391.0962361398333 231.53844695006603 366.9866199062559 247.69229367273098 367.41065838272584C263.84614039539593 367.8346968591958 259.23075561749164 397.4971979036893 275.38460234015656 402.3029673036821C291.53844906282154 407.10873670367494 286.92306428491725 380.6366203869078 303.0769110075822 383.88758203984406C319.23075773024715 387.1385436927804 314.61537295234285 416.27604471878726 330.7692196750078 413.44912154232094C346.92306639767276 410.62219836585456 342.3076816197685 369.9548892415456 358.46152834243344 374.1952740062451C374.61537506509836 378.43565877094466 369.9999902871941 428.12892975154267 386.153837009859 427.9875835927194C402.30768373252397 427.846237433896 397.6922989546197 376.25488946338487 413.84614567728465 373.7106586045652C429.9999923999496 371.16642774574547 425.38460762204534 421.52604490365337 441.53845434471026 419.2645063624803C457.6923010673752 417.0029678213072 453.0769162894709 361.57508125416314 469.23076301213587 365.956812177686C485.3846097348008 370.33854310120887 480.7692249568965 433.8635453380887 496.9230716795615 434.2875838145587C513.0769184022264 434.7116222910287 508.46153362432216 374.1952740062451 524.6153803469871 367.41065838272584C540.7692270696521 360.6260427592066 536.1538422917478 403.67604427510867 552.3076890144127 411.0260445339212C568.4615357370776 418.37604479273375 571.9230743205057 397.98181330536926 579.9999976818383 392.61065927008315 " transform="rotate(45, 400, 400)"></path><path d="M231.99998498769907 400.7925209091071C239.53844679160937 391.6898282808854 242.76921613614238 369.18751979621317 257.84613974396296 369.5832890409185C272.92306335178364 369.97905828562375 268.6153708924063 397.66405926048435 283.6922945002269 402.149444033811C298.7692181080475 406.63482880713764 294.4615256486702 381.9275202448216 309.5384492564908 384.9617511208955C324.6153728643114 387.99598199696936 320.3076804049341 415.1909829545758 335.38460401275466 412.5525213232072C350.4615276205753 409.9140596918386 346.153835161198 371.95790450915024 361.2307587690186 375.9155969562031C376.3076823768392 379.873289403256 371.9999899174619 426.2536756518142 387.0769135252825 426.12175257024575C402.1538371331031 425.98982948867734 397.8461446737258 377.8379047162002 412.9230682815464 375.46328924796853C427.999991889367 373.0886737797368 423.6922994299897 420.0909831271175 438.7692230378103 417.9802138220226C453.84614664563094 415.86944451692773 449.5384541862536 364.1367503875933 464.6153777940742 368.2263659162146C479.69230140189484 372.315981444836 475.38460894251745 431.6059835325905 490.46153255033806 432.0017527772958C505.5384561581587 432.3975220220011 501.23076369878135 375.9155969562031 516.307687306602 369.5832890409185C531.3846109144226 363.2509811256338 527.0769184550453 403.4309825404757 542.1538420628658 410.2909827820341C557.2307656706864 417.1509830235925 560.4615350152194 398.116366968719 567.9999968191298 393.1032898691186 " transform="rotate(42, 400, 400)"></path><path d="M244.00000022888185 400.73591118282883C251.00000047536997 392.2834108851944 254.00000058100775 371.3884101494273 268.00000107398404 371.7559101623679C282.00000156696035 372.12341017530855 278.00000142611 397.8309110805362 292.00000191908623 401.9959112271967C306.00000241206254 406.1609113738571 302.0000022712121 383.21841056599226 316.0000027641884 386.03591066520374C330.00000325716474 388.85341076441523 326.00000311631436 414.1059116536212 340.0000036092906 411.65591156735036C354.00000410226687 409.20591148107945 350.00000396141655 373.9609102400117 364.0000044543928 377.63591036941796C378.0000049473691 381.3109104988242 374.00000480651875 424.3784120153425 388.000005299495 424.25591201102895C402.00000579247126 424.13341200671545 398.00000565162094 379.4209104322724 412.0000061445972 377.2159103546287C426.0000066375735 375.01091027698493 422.00000649672313 418.6559118138385 436.0000069896994 416.6959117448218C450.00000748267576 414.73591167580514 446.00000734182527 366.69840998428026 460.0000078348016 370.4959101180001C474.0000083277779 374.2934102517199 470.0000081869275 429.3484121903491 484.0000086799038 429.71591220328975C498.00000917288 430.0834122162304 494.0000090320297 377.63591036941796 508.00000952500596 371.7559101623679C522.0000100179823 365.87590995531787 518.000009877132 403.1859112690997 532.0000103701082 409.55591149340387C546.0000108630844 415.9259117177081 549.0000109687222 398.25091109532553 556.0000112152104 393.5959109314109 " transform="rotate(39, 400, 400)"></path><path d="M256.00000021127556 400.6793052712478C262.4615389003415 392.87699730420064 265.2307697670841 373.5893043173387 278.15384714521605 373.92853509851466C291.076924523348 374.2677658796906 287.3846167010246 397.9977667152854 300.30769407915653 401.8423822352797C313.2307714572885 405.6869977552739 309.53846363496507 384.5093047018602 322.461541013097 387.11007402420927C335.38461839122897 389.7108433465583 331.69231056890555 413.0208441673638 344.6153879470375 410.7593056261907C357.53846532516945 408.49776708501764 353.84615750284604 375.96391978557045 366.769234880978 379.3562275973301C379.69231225910994 382.7485354090897 376.0000044367865 422.50315219356816 388.9230818149185 422.3900752665095C401.8461591930504 422.2769983394508 398.153851370727 381.0039199630419 411.07692874885896 378.96853527598614C424.0000061269909 376.93315058893035 420.3076983046675 417.2208443152567 433.2307756827995 415.4116134823182C446.1538530609314 413.60238264937976 442.461545238608 369.2600733956645 455.38462261673993 372.7654581344828C468.3076999948719 376.2708428733011 464.61539217254847 427.09084466280495 477.53846955068036 427.4300754439809C490.46154692881237 427.7693062251569 486.76923910648895 379.3562275973301 499.69231648462096 373.92853509851466C512.6153938627529 368.50084259969924 508.92308604042944 402.9408438124209 521.8461634185614 408.82084401947094C534.7692407966933 414.700844226521 537.5384716634359 398.38545903662936 544.0000103525019 394.0885358084005 " transform="rotate(36, 400, 400)"></path><path d="M268.0000001936693 400.62269363762084C273.92307732531305 393.47057800116096 276.4615389531604 375.7901927632042 288.307693216448 376.1011543126155C300.15384747973565 376.4121158620268 296.7692319759392 398.16461662798866 308.61538623922684 401.68884752131675C320.4615405025144 405.2130784146448 317.07692499871797 385.80019311568225 328.92307926200556 388.18423166116884C340.7692335252932 390.5682702066555 337.38461802149675 411.93577095906056 349.2307722847844 409.8626939629852C361.076926548072 407.7896169669099 357.6923110442755 377.96692360908327 369.5384653075632 381.0765391031963C381.38461957085076 384.18615459730927 378.0000040670543 420.62788664974784 389.84615833034195 420.52423279994406C401.69231259362954 420.4205789501403 398.3076970898331 382.58692377176544 410.1538513531207 380.7211544752977C422.0000056164083 378.85538517882986 418.61539011261186 415.785771094629 430.4615443758995 414.12730949776875C442.30769863918715 412.4688479009085 438.92308313539064 371.82173108500285 450.7692373986783 375.0350004289196C462.6153916619659 378.24826977283635 459.2307761581694 424.83327141321496 471.07693042145706 425.14423296262623C482.9230846847447 425.45519451203756 479.53846918094825 381.0765391031963 491.38462344423584 376.1011543126155C503.23077770752343 371.1257695220347 499.846162203727 402.6957706336962 511.6923164670146 408.08577082349206C523.5384707303022 413.47577101328795 526.0769323581496 398.52000125588734 532.0000094897935 394.58115496334415 " transform="rotate(33, 400, 400)"></path><path d="M280.00000017606294 400.56607818929666C285.3846157502846 394.064154883424 287.69230813923673 377.99107739437244 298.46153928768 378.27376971201903C309.2307704361233 378.5564620296657 306.1538472508538 398.3314627259947 316.9230783992971 401.53530899265655C327.6923095477404 404.73915525931847 324.6153863624709 387.091077714807 335.38461751091415 389.2583854834312C346.15384865935744 391.42569325205545 343.07692547408794 410.85069393606 353.8461566225312 408.96607848508245C364.6153877709745 407.08146303410484 361.538464585705 379.96992361789887 372.3076957341483 382.79684679436525C383.0769268825916 385.62376997083163 380.0000036973221 418.7526172912303 390.76923484576537 418.65838651868137C401.53846599420865 418.5641557461325 398.46154280893916 384.16992376579174 409.23077395738244 382.47376985991195C420.0000051058257 380.7776159540321 416.9230819205562 414.3506940593041 427.6923130689995 412.843001698522C438.46154421744285 411.33530933773994 435.3846210321733 374.38338495964393 446.1538521806166 377.30453890865914C456.9230833290599 380.2256928576744 453.84616014379037 422.57569434892764 464.61539129223365 422.8583866665743C475.384622440677 423.14107898422094 472.30769925540744 382.79684679436525 483.0769304038507 378.27376971201903C493.8461615522941 373.75069262967287 490.76923836702457 402.45069364027427 501.5384695154678 407.35069381281596C512.3077006639111 412.25069398535766 514.6153930528633 398.654539660448 520.0000086270849 395.0737703035906 " transform="rotate(30, 400, 400)"></path><path d="M292.00000015845666 400.50947227771564C296.8461541752562 394.6577413024303 298.92307732531305 380.1919715622838 308.615385358912 380.4463946481658C318.307693392511 380.70081773404775 315.5384625257684 398.49831836074384 325.2307705593674 401.3817800007395C334.92307859296636 404.2652416407352 332.15384772622383 388.3819718506749 341.84615575982275 390.3325488424367C351.5384637934217 392.28312583419853 348.76923292667914 409.76562644980265 358.4615409602781 408.0694725439228C368.1538489938771 406.373318638043 365.38461812713456 381.97293316345764 375.0769261607335 384.51716402227737C384.76923419433245 387.06139488109704 382.00000332758987 416.8773574694559 391.69231136118884 416.7925497741619C401.3846193947878 416.7077420788679 398.6153885280453 385.7529332965612 408.3076965616442 384.2263947812694C418.0000045952432 382.69985626597753 415.23077372850065 412.91562656072233 424.92308176209957 411.55870343601845C434.61538979569855 410.2017803113146 431.84615892895596 376.9450483710282 441.53846696255493 379.57408692514184C451.2307749961539 382.2031254792556 448.4615441294113 420.3181268213835 458.1538521630103 420.5725499072655C467.8461601966093 420.8269729931475 465.07692932986674 384.51716402227737 474.76923736346566 380.4463946481658C484.4615453970647 376.3756252740542 481.69231453032205 402.2056261835954 491.3846225639211 406.615626338883C501.07693059752 411.0256264941705 503.15385374757693 398.7890876017518 508.0000077643764 395.5663951805802 " transform="rotate(27, 400, 400)"></path><path d="M303.99999251145584 400.4528682734832C308.3076849708332 395.25132962878513 310.15383888199483 382.3928676375438 318.7692238007495 382.61902149166116C327.3846087195041 382.84517534577844 324.9230701712885 398.6651759028416 333.53845509004316 401.22825291617113C342.1538400087978 403.79132992950065 339.69230146058214 389.6728678938915 348.3076863793368 391.4067141087909C356.92307129809143 393.14056032369024 354.4615327498758 408.6805608708939 363.0769176686305 407.17286851011187C371.6923025873851 405.6651761493298 369.2307640391695 383.975944616365 377.84614895792413 386.23748315753807C386.46153387667874 388.4990216987112 383.9999953284631 415.0020995550301 392.6153802472178 414.926714936991C401.2307651659724 414.8513303189519 398.76922661775683 387.3359447346793 407.38461153651144 385.97902160997546C415.9999964552661 384.6220984852716 413.5384579070505 411.48056096948915 422.1538428258051 410.2744070808635C430.76922774455977 409.0682531922379 428.3076891963441 379.506713689761 436.92307411509876 381.84363684897323C445.5384590338534 384.1805600081854 443.07692048563774 418.060561201188 451.6923054043924 418.2867150553053C460.3076903231471 418.51286890942265 457.84615177493146 386.23748315753807 466.46153669368607 382.61902149166116C475.07692161244074 379.0005598257842 472.6153830642251 401.9605606342653 481.2307679829797 405.8805607722986C489.84615290173434 409.800560910332 491.69230681289605 398.92363745040427 495.9999992722734 396.0590219649184 " transform="rotate(24, 400, 400)"></path><path d="M315.99999249384956 400.3962585472049C319.7692233958047 395.8449122330941 321.3846080680712 384.593757990758 328.9230698719815 384.7916426131106C336.4615316758918 384.98952723546324 334.30768544620315 398.83202772289354 341.84614725011346 401.0747201095569C349.3846090540237 403.3174124962202 347.2307628243351 390.96375821506217 354.7692246282454 392.48087365309914C362.3076864321557 393.99798909113605 360.15384020246705 407.5954895699393 367.6923020063773 406.27625875425497C375.2307638102876 404.95702793857066 373.076917580599 385.9789503472265 380.6153793845093 387.9577965707529C388.1538411884196 389.9366427942794 385.99999495873095 413.12683591855847 393.53845676264126 413.06087437777427C401.0769185665515 412.99491283699 398.9230723368629 388.9189504507515 406.4615341407732 387.73164271663563C413.9999959446835 386.54433498251973 411.84614971499485 410.0454896562101 419.38461151890516 408.9901050036627C426.92307332281547 407.93472035111523 424.7692270931268 382.068373286448 432.3076888970371 384.11318105075867C439.8461507009474 386.15798881506936 437.6923044712587 415.8029898589466 445.230766275169 416.00087448129926C452.7692280790793 416.1987591036519 450.6153818493907 387.9577965707529 458.153843653301 384.7916426131106C465.6923054572113 381.6254886554683 463.53845922752265 401.71548936288923 471.0769210314329 405.1454894836684C478.6153828353432 408.5754896044476 480.2307675076097 399.0581815770108 483.9999984095649 396.5516430272107 " transform="rotate(21, 400, 400)"></path><path d="M327.9999924762432 400.33964882092664C331.23076182077625 396.438494837403 332.6153772541475 386.7946483439721 339.0769159432135 386.96426373456006C345.53845463227947 387.13387912514804 343.69230072111776 398.9988795429455 350.15383941018376 400.9211873029426C356.6153780992497 402.8434950629397 354.769224188088 392.2546485362328 361.230762877154 393.55503319740734C367.69230156621995 394.85541785858186 365.84614765505825 406.51041826898467 372.30768634412425 405.3796489983981C378.7692250331902 404.2488797278115 376.9230711220285 387.98195607808793 383.3846098110945 389.6781099839678C389.84614850016044 391.3742638898476 387.99999458899873 411.2515722820868 394.46153327806473 411.1950338185575C400.9230719671307 411.1384953550281 399.076918055969 390.5019561668237 405.538456745035 389.4842638232958C411.9999954341009 388.4665714797679 410.1538415229392 408.6104183429311 416.6153802120052 407.70580292646184C423.07691890107117 406.8011875099926 421.23076498990946 384.63003288313496 427.69230367897546 386.3827252525441C434.1538423680414 388.13541762195325 432.3076884568797 413.54541851670524 438.76922714594565 413.7150339072932C445.23076583501165 413.8846492978812 443.38461192384995 389.6781099839678 449.84615061291595 386.96426373456006C456.3076893019819 384.25041748515235 454.4615353908202 401.4704180915132 460.9230740798862 404.4104181950382C467.38461276895214 407.3504182985632 468.7692282023234 399.19272570361744 471.99999754685643 397.044264089503 " transform="rotate(18, 400, 400)"></path><path d="M339.99999245863694 400.28304195567125C342.6923002457478 397.032080302735 343.84614644022383 388.99554155820914 349.2307620144455 389.1368877170325C354.6153775886671 389.2782338758558 353.07691599603237 399.1657342240203 358.461531570254 400.76765735735125C363.8461471444757 402.36958049068215 362.3076855518409 393.5455417184264 367.69230112606255 394.62919560273855C373.0769167002842 395.7128494870507 371.53845510764944 405.42534982905295 376.9230706818711 404.4830421035642C382.3076862560927 403.5407343780754 380.769224663458 389.9849646699724 386.1538402376796 391.3984262582056C391.53845581190126 392.81188784643876 389.9999942192665 409.3763115066381 395.38460979348815 409.32919612036363C400.7692253677098 409.2820807340892 399.23076377507505 392.0849647439188 404.6153793492967 391.2368877909789C409.99999492351833 390.38881083803903 408.4615333308836 407.17534989067497 413.8461489051052 406.42150371028396C419.2307644793269 405.66765752989295 417.6923028866921 387.1916953408449 423.07691846091376 388.65227231535255C428.4615340351354 390.11284928986015 426.92307244250065 411.28785003548677 432.3076880167223 411.42919619431007C437.692303590944 411.5705423531334 436.1538419983092 391.3984262582056 441.53845757253083 389.1368877170325C446.92307314675253 386.87534917585936 445.3846115541178 401.2253496811601 450.76922712833937 403.67534976743093C456.153842702561 406.1253498537018 457.3076888970371 399.32727269124695 459.9999966841479 397.5368880128182 " transform="rotate(15, 400, 400)"></path><path d="M352.0000000704252 400.2264331830673C354.15384630011386 397.62566386071825 355.0769232556947 391.1964328650976 359.384615715072 391.30950979215623C363.69230817444935 391.4225867192149 362.4615389003415 399.3325869977465 366.76923135971884 400.6141255044113C371.0769238190961 401.895664011076 369.84615454498834 394.83643299327144 374.1538470043657 395.7033561007211C378.46153946374295 396.5702792081708 377.23077018963517 404.34027948177265 381.5384626490125 403.5864333013816C385.8461551083898 402.8325871209906 384.61538583428205 391.9879713545082 388.92307829365933 393.11874062509474C393.2307707530366 394.2495098956813 392.0000014789288 407.50104882384073 396.30769393830616 407.46335651482116C400.61538639768344 407.42566420580164 399.3846171235757 393.6679714136653 403.692309582953 392.9895098513134C408.0000020423303 392.3110482889615 406.76923276822254 405.74027953107026 411.0769252275998 405.13720258675744C415.38461768697715 404.5341256424446 414.1538484128693 389.7533558912062 418.46154087224664 390.9218174708123C422.769233331624 392.0902790504184 421.53846405751614 409.03027964691967 425.8461565168935 409.14335657397834C430.1538489762708 409.256433501037 428.923079702163 393.11874062509474 433.2307721615403 391.30950979215623C437.53846462091764 389.5002789592178 436.30769534680985 400.98027936345835 440.61538780618713 402.940279432475C444.9230802655644 404.9002795014917 445.8461572211453 399.4618177715278 448.00000345083396 398.0295100287849 " transform="rotate(12, 400, 400)"></path><path d="M364.0000000528189 400.16982536413764C365.6153847250854 398.21924837237583 366.307692441771 393.39732512566036 369.538461786304 393.48213282095435C372.769231130837 393.56694051624834 371.8461541752562 399.49944072514705 375.07692351978915 400.4605946051456C378.3076928643221 401.4217484851442 377.38461590874124 396.1273252217907 380.61538525327427 396.777517552378C383.84615459780724 397.42770988296525 382.9230776422264 403.2552100881666 386.1538469867594 402.6898254528734C389.38461633129236 402.1244408175801 388.4615393757115 393.9909789927183 391.6923087202445 394.8390559456582C394.9230780647775 395.6871328985981 394.00000110919666 405.62578709471774 397.23077045372963 405.59751786295305C400.4615397982626 405.5692486311884 399.5384628426817 395.25097903708615 402.76923218721475 394.7421328653222C406.0000015317477 394.2332866935583 405.0769245761669 404.30521012513987 408.3076939206999 403.85290241690524C411.53846326523285 403.4005947086706 410.61538630965197 392.3150173952418 413.846155654185 393.19136357994637C417.07692499871797 394.06770976465094 416.15384804313715 406.77271021202694 419.3846173876701 406.8575179073209C422.6153867322031 406.9423256026149 421.6923097766222 394.8390559456582 424.92307912115524 393.48213282095435C428.1538484656882 392.1252096962505 427.2307715101074 400.73520999943094 430.46154085464036 402.20521005119343C433.69231019917333 403.67521010295593 434.38461791585894 399.596363805483 436.0000025881255 398.52213299842583 " transform="rotate(9, 400, 400)"></path><path d="M375.99999812786393 400.11321563785935C377.0769212427083 398.81283097668484 377.53845972049874 395.59821547887447 379.69230595018735 395.65475394240383C381.846152179876 395.71129240593314 381.23076754282215 399.6662925451989 383.38461377251076 400.3070617985313C385.53846000219943 400.94783105186366 384.92307536514556 397.4182155429614 387.0769215948342 397.8516770966862C389.23076782452284 398.2851386504111 388.615383187469 402.170138787212 390.7692294171576 401.7932156970165C392.92307564684626 401.416292606821 392.3076910097924 395.9939847235798 394.461537239481 396.559369358873C396.61538346916967 397.1247539941663 395.9999988321158 403.75052345824605 398.1538450618044 403.73167730373626C400.3076912914931 403.71283114922653 399.6923066544392 396.83398475315835 401.84615288412783 396.4947539719824C403.99999911381656 396.15552319080643 403.38461447676264 402.8701388118608 405.53846070645125 402.5686003397044C407.69230693613997 402.267061867548 407.07692229908605 394.8766769919288 409.23076852877466 395.46090778173186C411.3846147584634 396.0451385715349 410.76923012140946 404.5151388697855 412.9230763510981 404.5716773333148C415.0769225807868 404.6282157968442 414.4615379437329 396.559369358873 416.6153841734215 395.65475394240383C418.7692304031102 394.7501385259346 418.1538457660563 400.49013872805483 420.3076919957449 401.4701387625632C422.46153822543357 402.45013879707153 422.923076703224 399.7309079320896 423.9999998180683 399.01475406071813 " transform="rotate(6, 400, 400)"></path><path d="M387.99999811025765 400.05660781892965C388.53845966767983 399.4064154883424 388.76922890657505 397.79910773943726 389.84615202141936 397.8273769712019C390.9230751362637 397.85564620296657 390.61538281773676 399.8331462725995 391.69230593258106 400.15353089926566C392.7692290474254 400.47391552593183 392.46153672889847 398.7091077714807 393.53845984374277 398.9258385483431C394.61538295858713 399.14256932520556 394.3076906400602 401.085069393606 395.3846137549045 400.89660784850827C396.46153686974884 400.7081463034105 396.1538445512219 397.99699236178986 397.2307676660662 398.2796846794365C398.30769078091055 398.56237699708316 397.9999984623836 401.87526172912305 399.0769215772279 401.86583865186816C400.15384469207225 401.85641557461327 399.8461523735453 398.4169923765792 400.9230754883896 398.2473769859912C401.99999860323396 398.0777615954032 401.692306284707 401.4350694059304 402.7692293995513 401.2843001698522C403.84615251439567 401.133530933774 403.5384601958687 397.4383384959644 404.615383310713 397.73045389086593C405.6923064255574 398.0225692857674 405.3846141070304 402.2575694348928 406.4615372218747 402.2858386666574C407.5384603367191 402.3141078984221 407.2307680181921 398.2796846794365 408.3076911330364 397.8273769712019C409.3846142478808 397.37506926296726 409.07692192935383 400.2450693640274 410.15384504419814 400.7350693812816C411.23076815904244 401.22506939853577 411.4615373979377 399.8654539660448 411.99999895535984 399.50737703035907 " transform="rotate(3, 400, 400)"></path></g></svg>